<svg xmlns="http://www.w3.org/2000/svg" viewBox="0 0 100 100">
  <rect width="100" height="100" fill="white" rx="20"/>
  <!-- Engrenagem -->
  <path fill="#111184" d="M50 25c-1.4 0-2.6 1.1-2.9 2.4l-.5 2.1c-1.5.4-2.9 1.1-4.1 2l-1.9-1.2c-1.2-.7-2.7-.4-3.5.7l-3.5 6.1c-.7 1.2-.4 2.7.7 3.5l1.9 1.2c-.4 1.5-.5 3-.4 4.5l-2.1.5c-1.4.3-2.4 1.5-2.4 2.9v7.1c0 1.4 1.1 2.6 2.4 2.9l2.1.5c.4 1.5 1.1 2.9 2 4.1l-1.2 1.9c-.7 1.2-.4 2.7.7 3.5l6.1 3.5c1.2.7 2.7.4 3.5-.7l1.2-1.9c1.5.4 3 .5 4.5.4l.5 2.1c.3 1.4 1.5 2.4 2.9 2.4h7.1c1.4 0 2.6-1.1 2.9-2.4l.5-2.1c1.5-.4 2.9-1.1 4.1-2l1.9 1.2c1.2.7 2.7.4 3.5-.7l3.5-6.1c.7-1.2.4-2.7-.7-3.5l-1.9-1.2c.4-1.5.5-3 .4-4.5l2.1-.5c1.4-.3 2.4-1.5 2.4-2.9V50c0-1.4-1.1-2.6-2.4-2.9l-2.1-.5c-.4-1.5-1.1-2.9-2-4.1l1.2-1.9c.7-1.2.4-2.7-.7-3.5l-6.1-3.5c-1.2-.7-2.7-.4-3.5.7l-1.2 1.9c-1.5-.4-3-.5-4.5-.4l-.5-2.1c-.3-1.4-1.5-2.4-2.9-2.4H50zm3.5 17.7c4.8 0 8.8 4 8.8 8.8s-4 8.8-8.8 8.8-8.8-4-8.8-8.8 4-8.8 8.8-8.8z"/>
  <!-- Chave Cruzada -->
  <path fill="#111184" d="M30 70 L70 30" stroke="#111184" stroke-width="6" stroke-linecap="round" opacity="0.4"/>
</svg>